%TF.GenerationSoftware,Altium Limited,Altium Designer,25.8.1 (18)*%
G04 Layer_Color=65535*
%FSLAX45Y45*%
%MOMM*%
%TF.SameCoordinates,13E1BA4B-C2ED-4E26-A105-CF6C73A7194F*%
%TF.FilePolarity,Positive*%
%TF.FileFunction,Legend,Top*%
%TF.Part,Single*%
G01*
G75*
%TA.AperFunction,NonConductor*%
%ADD18C,0.25000*%
%ADD19C,0.20000*%
%ADD20C,0.25400*%
D18*
X642500Y-162500D02*
G03*
X642500Y-162500I-12500J0D01*
G01*
X-617500Y-37500D02*
G03*
X-617500Y-37500I-12500J0D01*
G01*
X-222500Y-5000D02*
G03*
X-222500Y-5000I-12500J0D01*
G01*
D19*
X797500Y-387500D02*
X920000D01*
X1202500Y-260000D02*
Y60000D01*
X797500Y187500D02*
X920000D01*
X797500Y30000D02*
Y187500D01*
Y-387500D02*
Y-230000D01*
X-920000Y187500D02*
X-797500D01*
X-1202500Y-260000D02*
Y60000D01*
X-920000Y-387500D02*
X-797500D01*
Y-230000D01*
Y30000D02*
Y187500D01*
X-35000Y-250000D02*
Y50000D01*
Y-250000D02*
X35000D01*
Y50000D01*
X-35000D02*
X35000D01*
X327500Y-100000D02*
Y-85000D01*
X472500Y-100000D02*
Y-85000D01*
X-472500Y-107500D02*
Y-92500D01*
X-327500Y-107500D02*
Y-92500D01*
D20*
X933728Y450656D02*
X882945D01*
X908337D01*
Y323697D01*
X882945Y298305D01*
X857553D01*
X832161Y323697D01*
X1086079Y298305D02*
X984512D01*
X1086079Y399872D01*
Y425264D01*
X1060687Y450656D01*
X1009904D01*
X984512Y425264D01*
X-972500Y438676D02*
X-1023284D01*
X-997892D01*
Y311717D01*
X-1023284Y286325D01*
X-1048675D01*
X-1074067Y311717D01*
X-921716Y286325D02*
X-870933D01*
X-896325D01*
Y438676D01*
X-921716Y413284D01*
X-101567Y326176D02*
Y199217D01*
X-76175Y173825D01*
X-25392D01*
X0Y199217D01*
Y326176D01*
X50784Y173825D02*
X101567D01*
X76176D01*
Y326176D01*
X50784Y300784D01*
X-400000D02*
X-425392Y326176D01*
X-476175D01*
X-501567Y300784D01*
Y199217D01*
X-476175Y173825D01*
X-425392D01*
X-400000Y199217D01*
X-349216Y173825D02*
X-298433D01*
X-323824D01*
Y326176D01*
X-349216Y300784D01*
X374608D02*
X349216Y326176D01*
X298433D01*
X273041Y300784D01*
Y199217D01*
X298433Y173825D01*
X349216D01*
X374608Y199217D01*
X526959Y173825D02*
X425392D01*
X526959Y275392D01*
Y300784D01*
X501567Y326176D01*
X450784D01*
X425392Y300784D01*
%TF.MD5,c11719be186437b95971e8e0d8389080*%
M02*
