%TF.GenerationSoftware,Altium Limited,Altium Designer,25.8.1 (18)*%
G04 Layer_Physical_Order=1*
G04 Layer_Color=255*
%FSLAX45Y45*%
%MOMM*%
%TF.SameCoordinates,13E1BA4B-C2ED-4E26-A105-CF6C73A7194F*%
%TF.FilePolarity,Positive*%
%TF.FileFunction,Copper,L1,Top,Signal*%
%TF.Part,Single*%
G01*
G75*
%TA.AperFunction,Conductor*%
%ADD10C,0.25400*%
%TA.AperFunction,SMDPad,CuDef*%
%ADD11R,1.70000X0.60000*%
%ADD12R,2.70000X1.00000*%
%ADD13R,1.00000X0.66000*%
%ADD14R,1.40000X0.95000*%
%TA.AperFunction,ConnectorPad*%
%ADD15R,1.40000X0.95000*%
%TA.AperFunction,Conductor*%
%ADD16C,0.50000*%
%TA.AperFunction,ViaPad*%
%ADD17C,1.27000*%
D10*
X-1129289Y550000D02*
G03*
X-1300000Y379289I0J-170711D01*
G01*
X1173000Y-550000D02*
G03*
X1300000Y-423000I0J127000D01*
G01*
Y379290D02*
G03*
X1129290Y550000I-170710J0D01*
G01*
X-1300000Y-379289D02*
G03*
X-1129289Y-550000I170711J0D01*
G01*
X-200878Y-265778D02*
G03*
X-207212Y-254666I-24523J-6620D01*
G01*
X-218100Y-228000D02*
G03*
X-207212Y-254666I38100J0D01*
G01*
X-188006Y-124750D02*
G03*
X-218100Y-162000I8006J-37249D01*
G01*
X650000Y100000D02*
G03*
X660606Y74394I36213J0D01*
G01*
X-650000Y-350000D02*
G03*
X-695962Y-239038I-156923J0D01*
G01*
X-71994Y-170249D02*
G03*
X-41900Y-133000I-8006J37249D01*
G01*
Y-67000D02*
G03*
X-71994Y-29750I-38100J0D01*
G01*
X-1300000Y-379289D02*
Y379289D01*
X1300000Y-423000D02*
Y379290D01*
X-1129289Y-550000D02*
X1173000D01*
X-1129289Y550000D02*
X1129290D01*
X-200878Y-265778D02*
X-150000Y-350000D01*
X-218100Y-228000D02*
Y-162000D01*
X-188006Y-124751D02*
X-167300Y-120300D01*
X-130000Y-100000D01*
X400000Y-350000D02*
Y-185000D01*
X660606Y74394D02*
X772500Y-37500D01*
X-772500Y-162500D02*
X-695962Y-239038D01*
X-400000Y-350000D02*
Y-192500D01*
X-130000Y-195000D02*
X-92700Y-174700D01*
X-71994Y-170249D01*
X-41900Y-133000D02*
Y-67000D01*
X-92700Y-25300D02*
X-71994Y-29751D01*
X-130000Y-5000D02*
X-92700Y-25300D01*
D11*
X772500Y-37500D02*
D03*
Y-162500D02*
D03*
X-772500D02*
D03*
Y-37500D02*
D03*
D12*
X1092500Y147500D02*
D03*
Y-347500D02*
D03*
X-1092500D02*
D03*
Y147500D02*
D03*
D13*
X130000Y-5000D02*
D03*
X-130000Y-100000D02*
D03*
Y-5000D02*
D03*
Y-195000D02*
D03*
X130000D02*
D03*
D14*
X400000Y0D02*
D03*
Y-185000D02*
D03*
D15*
X-400000Y-192500D02*
D03*
Y-7500D02*
D03*
D16*
X130000Y-5000D02*
X395000D01*
X585000Y-162500D02*
X750000D01*
X395000Y-5000D02*
X400000Y0D01*
X422500D02*
X585000Y-162500D01*
X400000Y0D02*
X422500D01*
X-400000Y-7500D02*
X-397500Y-5000D01*
X-722500Y-37500D02*
X-430000D01*
X-397500Y-5000D02*
X-130000D01*
X-430000Y-37500D02*
X-400000Y-7500D01*
D17*
X-150000Y-350000D02*
D03*
X650000Y100000D02*
D03*
X400000Y-350000D02*
D03*
X-400000D02*
D03*
X-650000D02*
D03*
%TF.MD5,072d61ef914a46164bab00df67904aee*%
M02*
